<svg width="41" height="33" viewBox="0 0 41 33" fill="none" xmlns="http://www.w3.org/2000/svg">
<path d="M38.1723 21.9445L39.799 22.8872C40.0064 23.0123 40.0893 23.2015 40.0479 23.4547C39.6301 24.7951 38.9219 25.9881 37.9234 27.0336C37.7575 27.2034 37.5693 27.2466 37.359 27.1632L35.799 26.2204C35.0908 26.8042 34.319 27.2436 33.4834 27.5385V29.424C33.4834 29.6742 33.359 29.8202 33.1101 29.8619C31.7353 30.1567 30.3604 30.1567 28.9856 29.8619C28.7367 29.8202 28.6123 29.6742 28.6123 29.424V27.5385C27.7767 27.2436 27.0049 26.8042 26.2967 26.2204L24.6745 27.1632C24.4641 27.2466 24.276 27.2034 24.1101 27.0336C23.153 25.9881 22.4656 24.7951 22.0479 23.4547C21.9649 23.2015 22.0479 23.0123 22.2967 22.8872L23.8612 21.9445C23.6953 21.0657 23.6953 20.187 23.8612 19.3083L22.2967 18.3655C22.0893 18.2404 22.0064 18.0513 22.0479 17.7981C22.4656 16.4577 23.153 15.2647 24.1101 14.2192C24.276 14.0494 24.4641 14.0077 24.6745 14.0941L26.2967 15.0324C27.0049 14.4486 27.7767 14.0092 28.6123 13.7143V11.8288C28.6123 11.5786 28.7367 11.4326 28.9856 11.3909C30.3604 11.096 31.7353 11.096 33.1101 11.3909C33.359 11.4326 33.4834 11.5786 33.4834 11.8288V13.7143C34.319 14.0092 35.0908 14.4486 35.799 15.0324L37.359 14.0941C37.5693 14.0077 37.7575 14.0494 37.9234 14.2192C38.9219 15.2647 39.6301 16.4577 40.0479 17.7981C40.0893 18.0513 40.0064 18.2404 39.799 18.3655L38.1723 19.3083C38.3382 20.187 38.3382 21.0657 38.1723 21.9445ZM28.9234 22.7621C29.5071 23.3489 30.2153 23.6423 31.0479 23.6423C31.8804 23.6423 32.5886 23.3489 33.1723 22.7621C33.756 22.1753 34.0479 21.4634 34.0479 20.6264C34.0479 19.7894 33.756 19.0775 33.1723 18.4907C32.5886 17.9039 31.8804 17.6104 31.0479 17.6104C30.2153 17.6104 29.5071 17.9039 28.9234 18.4907C28.3397 19.0775 28.0479 19.7894 28.0479 20.6264C28.0479 21.4634 28.3397 22.1753 28.9234 22.7621ZM8.86119 13.4015C8.07007 14.1969 7.1323 14.5945 6.04785 14.5945C4.96341 14.5945 4.02563 14.1969 3.23452 13.4015C2.44341 12.6062 2.04785 11.6635 2.04785 10.5733C2.04785 9.48306 2.44341 8.5403 3.23452 7.74498C4.02563 6.94967 4.96341 6.55201 6.04785 6.55201C7.1323 6.55201 8.07007 6.94967 8.86119 7.74498C9.6523 8.5403 10.0479 9.48306 10.0479 10.5733C10.0479 11.6635 9.6523 12.6062 8.86119 13.4015ZM20.2345 16.6051H20.0479C18.1308 16.6051 16.4849 15.9141 15.1101 14.532C13.7353 13.1498 13.0479 11.4952 13.0479 9.56795C13.0479 7.64073 13.7249 5.98606 15.079 4.60394C16.433 3.22182 18.079 2.53076 20.0167 2.53076C21.9545 2.53076 23.6108 3.22182 24.9856 4.60394C26.3604 5.98606 27.0479 7.64073 27.0479 9.56795C27.0479 10.6165 26.8182 11.6218 26.359 12.5839C26.3175 12.5839 26.2864 12.5943 26.2656 12.6152C26.2449 12.636 26.2138 12.6673 26.1723 12.709L25.6745 12.3962C25.2982 12.1877 24.9012 12.0835 24.4834 12.0835C23.7753 12.0835 23.1723 12.3337 22.6745 12.8341C21.7145 13.8826 20.9634 15.1188 20.4212 16.5426C20.3797 16.5426 20.3175 16.5634 20.2345 16.6051ZM26.2345 28.6063L26.6123 28.794V29.424C26.6123 29.841 26.7367 30.2595 26.9856 30.6795H11.0479C10.2153 30.6795 9.50711 30.3861 8.92341 29.7993C8.3397 29.2125 8.04785 28.5006 8.04785 27.6636V25.8406C8.04785 23.83 8.756 22.1232 10.1723 20.7202C11.5886 19.3172 13.276 18.6158 15.2345 18.6158H15.799C17.1738 19.286 18.5901 19.6211 20.0479 19.6211C20.1308 19.6211 20.276 19.6211 20.4834 19.6211C20.5693 19.5794 20.633 19.5585 20.6745 19.5585C20.8404 19.767 21.0479 19.9562 21.2967 20.126L21.799 20.3762C21.7575 20.543 21.7575 20.7098 21.799 20.8766C21.799 20.8766 21.7782 20.8766 21.7367 20.8766C20.279 21.6302 19.7575 22.6772 20.1723 24.0176C20.673 25.6529 21.5071 27.12 22.6745 28.4187C23.1723 28.9221 23.7753 29.1738 24.4834 29.1738C24.9427 29.1738 25.5056 28.9846 26.1723 28.6063H26.2345ZM10.8612 17.7981C9.61082 18.4683 8.56933 19.4111 7.73674 20.6264C6.90118 21.8417 6.3797 23.1821 6.1723 24.6476H2.04785C1.50563 24.6476 1.03748 24.4481 0.643407 24.0489C0.24637 23.6527 0.0478516 23.1821 0.0478516 22.637V20.6264C0.0478516 19.5362 0.443407 18.5934 1.23452 17.7981C2.02563 17.0028 2.96341 16.6051 4.04785 16.6051H8.04785C9.1323 16.6051 10.0701 17.0028 10.8612 17.7981Z" fill="white"/>
</svg>
