<svg width="33" height="33" viewBox="0 0 33 33" fill="none" xmlns="http://www.w3.org/2000/svg">
<path d="M10.9248 28.1015L0.478308 17.6731C0.187756 17.3812 0.0424805 17.0043 0.0424805 16.5426C0.0424805 16.0809 0.187756 15.7041 0.478308 15.4122L2.79531 13.1514C3.08586 12.8148 3.45054 12.6465 3.88933 12.6465C4.32812 12.6465 4.71355 12.8148 5.04561 13.1514L12.05 20.1886L27.0594 5.10889C27.3944 4.7723 27.7798 4.604 28.2156 4.604C28.6544 4.604 29.0191 4.7723 29.3097 5.10889L31.6267 7.36973C31.9172 7.66164 32.0625 8.03845 32.0625 8.50015C32.0625 8.96185 31.9172 9.33865 31.6267 9.63057L13.1751 28.1015C12.8846 28.4381 12.5095 28.6064 12.05 28.6064C11.5904 28.6064 11.2154 28.4381 10.9248 28.1015Z" fill="white"/>
</svg>
