<svg width="41" height="33" viewBox="0 0 41 33" fill="none" xmlns="http://www.w3.org/2000/svg">
<path d="M8.86119 13.4015C8.07007 14.1969 7.1323 14.5945 6.04785 14.5945C4.96341 14.5945 4.02563 14.1969 3.23452 13.4015C2.44341 12.6062 2.04785 11.6635 2.04785 10.5733C2.04785 9.48306 2.44341 8.5403 3.23452 7.74498C4.02563 6.94967 4.96341 6.55201 6.04785 6.55201C7.1323 6.55201 8.07007 6.94967 8.86119 7.74498C9.6523 8.5403 10.0479 9.48306 10.0479 10.5733C10.0479 11.6635 9.6523 12.6062 8.86119 13.4015ZM36.8612 13.4015C36.0701 14.1969 35.1323 14.5945 34.0479 14.5945C32.9634 14.5945 32.0256 14.1969 31.2345 13.4015C30.4434 12.6062 30.0479 11.6635 30.0479 10.5733C30.0479 9.48306 30.4434 8.5403 31.2345 7.74498C32.0256 6.94967 32.9634 6.55201 34.0479 6.55201C35.1323 6.55201 36.0701 6.94967 36.8612 7.74498C37.6523 8.5403 38.0479 9.48306 38.0479 10.5733C38.0479 11.6635 37.6523 12.6062 36.8612 13.4015ZM32.0479 16.6051H36.0479C37.1323 16.6051 38.0701 17.0028 38.8612 17.7981C39.6523 18.5934 40.0479 19.5362 40.0479 20.6264V22.637C40.0479 23.1821 39.8493 23.6527 39.4523 24.0489C39.0582 24.4481 38.5901 24.6476 38.0479 24.6476H33.9234C33.799 23.6855 33.5279 22.7636 33.1101 21.8819C32.6923 21.0032 32.1501 20.2183 31.4834 19.5272C30.8167 18.8362 30.0671 18.2598 29.2345 17.7981C30.0256 17.0028 30.9634 16.6051 32.0479 16.6051ZM24.9856 14.532C23.6108 15.9141 21.9649 16.6051 20.0479 16.6051C18.1308 16.6051 16.4849 15.9141 15.1101 14.532C13.7353 13.1498 13.0479 11.4952 13.0479 9.56795C13.0479 7.64073 13.7353 5.98606 15.1101 4.60394C16.4849 3.22182 18.1308 2.53076 20.0479 2.53076C21.9649 2.53076 23.6108 3.22182 24.9856 4.60394C26.3604 5.98606 27.0479 7.64073 27.0479 9.56795C27.0479 11.4952 26.3604 13.1498 24.9856 14.532ZM24.2967 18.6158H24.8612C26.8612 18.6158 28.559 19.3172 29.9545 20.7202C31.3501 22.1232 32.0479 23.83 32.0479 25.8406V27.6636C32.0479 28.5006 31.756 29.2125 31.1723 29.7993C30.5886 30.3861 29.8804 30.6795 29.0479 30.6795H11.0479C10.2153 30.6795 9.50711 30.3861 8.92341 29.7993C8.3397 29.2125 8.04785 28.5006 8.04785 27.6636V25.8406C8.04785 23.83 8.74563 22.1232 10.1412 20.7202C11.5367 19.3172 13.2345 18.6158 15.2345 18.6158H15.799C17.1738 19.286 18.5901 19.6211 20.0479 19.6211C21.5056 19.6211 22.9219 19.286 24.2967 18.6158ZM10.8612 17.7981C9.61082 18.4683 8.56933 19.4111 7.73674 20.6264C6.90118 21.8417 6.3797 23.1821 6.1723 24.6476H2.04785C1.50563 24.6476 1.03748 24.4481 0.643407 24.0489C0.24637 23.6527 0.0478516 23.1821 0.0478516 22.637V20.6264C0.0478516 19.5362 0.443407 18.5934 1.23452 17.7981C2.02563 17.0028 2.96341 16.6051 4.04785 16.6051H8.04785C9.1323 16.6051 10.0701 17.0028 10.8612 17.7981Z" fill="white"/>
</svg>
