<svg width="33" height="33" viewBox="0 0 33 33" fill="none" xmlns="http://www.w3.org/2000/svg">
<path d="M27.5618 11.5787H31.3108C31.5628 11.5787 31.7615 11.6725 31.9067 11.8602C32.052 12.0508 32.1039 12.2712 32.0624 12.5215L31.6888 14.0272C31.5613 14.4055 31.3108 14.5946 30.9373 14.5946H29.6876C30.6037 15.3899 31.0618 16.3953 31.0618 17.6106V20.6265C31.0618 21.6333 30.7282 22.5135 30.0611 23.2671V26.6584C30.0611 27.2035 29.8625 27.6741 29.4652 28.0703C29.0709 28.4694 28.6025 28.669 28.0599 28.669H26.0586C25.5161 28.669 25.0476 28.4694 24.6533 28.0703C24.256 27.6741 24.0574 27.2035 24.0574 26.6584V24.6478H8.0474V26.6584C8.0474 27.2035 7.84876 27.6741 7.45147 28.0703C7.05715 28.4694 6.58871 28.669 6.04615 28.669H4.0449C3.50234 28.669 3.0339 28.4694 2.63958 28.0703C2.24229 27.6741 2.04365 27.2035 2.04365 26.6584V23.2671C1.37657 22.5135 1.04303 21.6333 1.04303 20.6265V17.6106C1.04303 16.3953 1.50109 15.3899 2.41722 14.5946H1.16755C0.793981 14.5946 0.543454 14.4055 0.415967 14.0272L0.0424003 12.5215C0.000892848 12.2712 0.0527771 12.0508 0.198053 11.8602C0.343329 11.6725 0.541972 11.5787 0.793981 11.5787H4.54744L5.61032 8.93807C5.85937 8.30956 6.20329 7.71382 6.64208 7.15085C7.07791 6.58489 7.57748 6.11277 8.14079 5.73447C8.70411 5.35916 9.31931 5.06576 9.98639 4.85427C10.6535 4.64576 11.3413 4.5415 12.0499 4.5415H20.0549C21.4721 4.5415 22.7751 4.93916 23.964 5.73447C25.1529 6.52979 25.9964 7.59765 26.4945 8.93807L27.5618 11.5787ZM9.29707 10.4483L8.0474 13.5893H24.0574L22.8077 10.4483C22.5972 9.90317 22.2326 9.45339 21.7137 9.09892C21.1919 8.74148 20.639 8.56275 20.0549 8.56275H12.0499C11.4658 8.56275 10.9129 8.74148 10.3911 9.09892C9.87224 9.45339 9.50757 9.90317 9.29707 10.4483ZM6.04615 20.6265C6.12916 20.6265 6.30705 20.6265 6.57982 20.6265C6.84961 20.6265 7.04678 20.6265 7.1713 20.6265C7.29582 20.6265 7.47371 20.6161 7.70496 20.5952C7.93325 20.5744 8.10966 20.5431 8.23418 20.5014C8.35871 20.4597 8.49509 20.4076 8.64333 20.345C8.7886 20.2825 8.89237 20.1871 8.95463 20.0591C9.01689 19.934 9.04803 19.788 9.04803 19.6212C9.04803 18.9927 8.69373 18.3329 7.98514 17.6418C7.27655 16.9508 6.63022 16.6053 6.04615 16.6053C5.46208 16.6053 4.98326 16.7944 4.6097 17.1727C4.23317 17.548 4.0449 18.0291 4.0449 18.6159C4.0449 19.2027 4.23317 19.6837 4.6097 20.0591C4.98326 20.4374 5.46208 20.6265 6.04615 20.6265ZM26.0586 20.6265C26.6427 20.6265 27.1215 20.4374 27.4951 20.0591C27.8716 19.6837 28.0599 19.2027 28.0599 18.6159C28.0599 18.0291 27.8716 17.548 27.4951 17.1727C27.1215 16.7944 26.6427 16.6053 26.0586 16.6053C25.6821 16.6053 25.2552 16.7736 24.7778 17.1101C24.2976 17.4438 23.8914 17.8518 23.5593 18.3344C23.2243 18.814 23.0568 19.2429 23.0568 19.6212C23.0568 19.788 23.0879 19.934 23.1502 20.0591C23.2124 20.1871 23.3162 20.2825 23.4615 20.345C23.6097 20.4076 23.7461 20.4597 23.8706 20.5014C23.9951 20.5431 24.1715 20.5744 24.3998 20.5952C24.6311 20.6161 24.809 20.6265 24.9335 20.6265C25.058 20.6265 25.2552 20.6265 25.525 20.6265C25.7977 20.6265 25.9756 20.6265 26.0586 20.6265Z" fill="white"/>
</svg>
