<svg width="49" height="49" viewBox="0 0 49 49" fill="none" xmlns="http://www.w3.org/2000/svg">
<path d="M36.0392 26.9051L47.0082 37.9379C47.6972 38.6261 48.0417 39.4416 48.0417 40.3844C48.0417 41.3273 47.6972 42.145 47.0082 42.8376L42.0405 47.8312C41.4137 48.5238 40.6157 48.8701 39.6467 48.8701C38.6776 48.8701 37.8507 48.5238 37.1661 47.8312L26.1905 36.8051C25.1281 35.7372 24.4724 34.448 24.2234 32.9376C23.9745 31.4317 24.1945 30.051 24.8836 28.7953L14.8482 18.7076H9.03361L0.0317383 6.64264L6.03299 0.610144L18.0355 9.65889V15.5037L28.0709 25.5914C29.3201 24.8988 30.6937 24.6776 32.1918 24.9278C33.6943 25.1781 34.9768 25.8372 36.0392 26.9051ZM31.1649 21.8177C30.3514 21.8177 29.569 21.9116 28.8177 22.0993L21.1295 14.3709C21.0672 10.537 22.3497 7.27047 24.9769 4.57149C26.6617 2.87345 28.6466 1.7094 30.9315 1.07934C33.212 0.453746 35.508 0.422466 37.8196 0.985499C38.2597 1.11062 38.5264 1.39437 38.6198 1.83675C38.7131 2.27467 38.6042 2.62098 38.293 2.87568L31.3516 9.94041L32.3851 16.3483L38.7598 17.3872L45.7946 10.4163C46.1058 10.099 46.4636 9.98733 46.8682 10.0812C47.2771 10.175 47.5439 10.4431 47.6683 10.8855C48.2284 13.1466 48.1973 15.4389 47.575 17.7626C46.9482 20.0907 45.7902 22.1015 44.1009 23.7951C42.914 24.9301 41.5404 25.8416 39.9801 26.5298L38.193 24.7401C36.2593 22.7919 33.9166 21.8177 31.1649 21.8177ZM16.0684 24.1771L21.4095 29.546C20.9739 31.4943 21.1317 33.4739 21.883 35.4847L10.2539 47.0805C9.06695 48.2736 7.64443 48.8701 5.98631 48.8701C4.32819 48.8701 2.92123 48.2892 1.76543 47.1274C0.609636 45.9656 0.0317383 44.5513 0.0317383 42.8846C0.0317383 41.2178 0.625195 39.7879 1.81211 38.5948L16.0684 24.1771ZM4.43932 44.4396C4.87497 44.882 5.40619 45.1032 6.03299 45.1032C6.65978 45.1032 7.19101 44.882 7.62665 44.4396C8.06674 44.0017 8.28679 43.4677 8.28679 42.8376C8.28679 42.2076 8.06674 41.6736 7.62665 41.2357C7.19101 40.7978 6.65978 40.5788 6.03299 40.5788C5.40619 40.5788 4.87497 40.7978 4.43932 41.2357C4.00368 41.6736 3.78585 42.2076 3.78585 42.8376C3.78585 43.4677 4.00368 44.0017 4.43932 44.4396Z" fill="#D81324"/>
</svg>
