<svg width="49" height="50" viewBox="0 0 49 50" fill="none" xmlns="http://www.w3.org/2000/svg">
<path d="M47.6713 11.1814C48.2314 13.4425 48.2003 15.7192 47.5779 18.0115C46.9511 20.3083 45.7931 22.3348 44.1038 24.091C42.2323 25.9141 40.0452 27.1094 37.5425 27.6769C35.0442 28.24 32.6059 28.1149 30.2276 27.3016L10.2568 47.3764C9.06988 48.5695 7.64736 49.166 5.98924 49.166C4.33112 49.166 2.92416 48.5851 1.76836 47.4233C0.612566 46.2615 0.034668 44.8472 0.034668 43.1805C0.034668 41.5137 0.628125 40.0838 1.81504 38.8907L21.7925 18.722C20.979 16.3984 20.8523 13.9631 21.4125 11.416C21.977 8.86894 23.1662 6.68607 24.9799 4.86738C26.6647 3.16935 28.6651 2.0053 30.9811 1.37524C33.2927 0.749644 35.5732 0.718364 37.8225 1.2814C38.2626 1.40652 38.5294 1.67463 38.6227 2.08573C38.7161 2.49237 38.6071 2.85432 38.296 3.17158L31.3545 10.2363L32.3881 16.6442L38.7627 17.6831L45.7975 10.7122C46.1087 10.3949 46.4666 10.2832 46.8711 10.3771C47.2801 10.4709 47.5468 10.739 47.6713 11.1814ZM4.44225 44.7355C4.8779 45.1779 5.40912 45.3991 6.03592 45.3991C6.66271 45.3991 7.19394 45.1779 7.62958 44.7355C8.06967 44.2976 8.28972 43.7636 8.28972 43.1335C8.28972 42.5035 8.06967 41.9695 7.62958 41.5316C7.19394 41.0937 6.66271 40.8747 6.03592 40.8747C5.40912 40.8747 4.8779 41.0937 4.44225 41.5316C4.00661 41.9695 3.78878 42.5035 3.78878 43.1335C3.78878 43.7636 4.00661 44.2976 4.44225 44.7355Z" fill="#D81324"/>
</svg>
