<svg width="61" height="49" viewBox="0 0 61 49" fill="none" xmlns="http://www.w3.org/2000/svg">
<path d="M49.5215 18.1633H51.0215C53.5237 18.1633 55.6482 19.0436 57.3948 20.8042C59.1459 22.5648 60.0215 24.7007 60.0215 27.212V34.7527C60.0215 35.1906 59.8815 35.5525 59.6015 35.8385C59.317 36.12 58.957 36.2608 58.5215 36.2608H54.0215C54.0215 38.7766 53.1459 40.9125 51.3948 42.6686C49.6482 44.4292 47.5237 45.3095 45.0215 45.3095C42.5237 45.3095 40.3993 44.4292 38.6482 42.6686C36.897 40.9125 36.0215 38.7766 36.0215 36.2608H24.0215C24.0215 38.7766 23.1459 40.9125 21.3948 42.6686C19.6482 44.4292 17.5237 45.3095 15.0215 45.3095C12.5237 45.3095 10.3993 44.4292 8.64815 42.6686C6.89704 40.9125 6.02148 38.7766 6.02148 36.2608H1.52148C1.08593 36.2608 0.725929 36.12 0.441484 35.8385C0.161484 35.5525 0.0214844 35.1906 0.0214844 34.7527V24.1958C0.0214844 22.815 0.443707 21.5906 1.28815 20.5227C2.1326 19.4547 3.21037 18.7308 4.52148 18.351L9.02148 6.85569C9.45704 5.72069 10.1904 4.80911 11.2215 4.12096C12.257 3.42834 13.3682 3.08203 14.5548 3.08203H34.6148C35.4282 3.08203 36.2882 3.30099 37.1948 3.7389C38.1015 4.18129 38.8037 4.71751 39.3015 5.34757L49.5215 18.1633ZM11.8348 39.4647C12.7104 40.345 13.7726 40.7852 15.0215 40.7852C16.2704 40.7852 17.3326 40.345 18.2082 39.4647C19.0837 38.5844 19.5215 37.5164 19.5215 36.2608C19.5215 35.0051 19.0837 33.9371 18.2082 33.0569C17.3326 32.1766 16.2704 31.7364 15.0215 31.7364C13.7726 31.7364 12.7104 32.1766 11.8348 33.0569C10.9593 33.9371 10.5215 35.0051 10.5215 36.2608C10.5215 37.5164 10.9593 38.5844 11.8348 39.4647ZM10.9882 18.1633H21.7748V9.11453H14.5548L10.9882 18.1633ZM26.2748 9.11453V18.1633H41.8348L34.6148 9.11453H26.2748ZM41.8348 39.4647C42.7104 40.345 43.7726 40.7852 45.0215 40.7852C46.2704 40.7852 47.3326 40.345 48.2082 39.4647C49.0837 38.5844 49.5215 37.5164 49.5215 36.2608C49.5215 35.0051 49.0837 33.9371 48.2082 33.0569C47.3326 32.1766 46.2704 31.7364 45.0215 31.7364C43.7726 31.7364 42.7104 32.1766 41.8348 33.0569C40.9593 33.9371 40.5215 35.0051 40.5215 36.2608C40.5215 37.5164 40.9593 38.5844 41.8348 39.4647Z" fill="#D81324"/>
</svg>
