<svg width="49" height="49" viewBox="0 0 49 49" fill="none" xmlns="http://www.w3.org/2000/svg">
<path d="M7.5799 8.17339C12.1142 3.61997 17.5998 1.34326 24.0367 1.34326C30.4736 1.34326 35.9591 3.61997 40.4934 8.17339C45.0277 12.7313 47.2948 18.2454 47.2948 24.7158C47.2948 31.1863 45.0277 36.7004 40.4934 41.2583C35.9591 45.8162 30.4736 48.0951 24.0367 48.0951C17.5998 48.0951 12.1142 45.8162 7.5799 41.2583C3.05007 36.7004 0.785156 31.1863 0.785156 24.7158C0.785156 18.2454 3.05007 12.7313 7.5799 8.17339ZM21.1294 28.2951L29.3844 34.3276C30.0068 34.77 30.538 34.7075 30.9781 34.14L33.5987 30.4668C34.0387 29.8368 33.9765 29.3028 33.4119 28.8649L27.4107 24.5282V11.5181C27.4107 10.7674 27.0373 10.392 26.2905 10.392H21.7895C21.0383 10.392 20.6626 10.7674 20.6626 11.5181V27.3567C20.6626 27.7321 20.8182 28.0449 21.1294 28.2951Z" fill="#D81324"/>
</svg>
