<svg width="49" height="49" viewBox="0 0 49 49" fill="none" xmlns="http://www.w3.org/2000/svg">
<path d="M41.9501 11.0545C43.0747 11.0545 44.1061 11.3226 45.044 11.8588C45.982 12.3906 46.7155 13.1122 47.2445 14.0238C47.7779 14.9354 48.0447 15.9564 48.0447 17.087C48.0447 19.4106 47.0445 21.1377 45.044 22.2682V32.9256C45.044 37.2601 43.4348 40.9824 40.2164 44.0925C36.9979 47.2025 33.106 48.7576 28.5406 48.7576C24.1041 48.7576 20.2744 47.2651 17.0515 44.2801C13.8331 41.2952 12.1616 37.6667 12.0372 33.3948C8.6009 32.7022 5.7403 30.9572 3.45538 28.16C1.17491 25.3671 0.034668 22.1788 0.034668 18.5951V3.98303C0.034668 3.42 0.205815 2.93293 0.548108 2.52183C0.894847 2.11519 1.31716 1.84932 1.81504 1.7242L7.72294 0.591427C8.34973 0.466309 8.91207 0.575787 9.40995 0.919863C9.91228 1.26841 10.2257 1.7242 10.3501 2.28723L10.6302 3.79535C10.7547 4.42542 10.6458 4.99068 10.3035 5.49116C9.96118 5.9961 9.50775 6.31113 8.94319 6.43625L6.03592 6.99928V18.5951C6.03592 21.1109 6.92721 23.2468 8.70981 25.0029C10.4924 26.7635 12.6328 27.6438 15.1311 27.6438C17.5717 27.6438 19.6654 26.7323 21.4125 24.9091C23.1639 23.0859 24.0397 20.95 24.0397 18.5012V6.99928L21.1324 6.43625C20.5056 6.31113 20.0211 5.9961 19.6788 5.49116C19.3365 4.99068 19.2276 4.42542 19.352 3.79535L19.7254 2.28723C19.7877 1.91187 19.9433 1.5678 20.1922 1.255C20.4456 0.937737 20.759 0.716546 21.1324 0.591427C21.5058 0.466309 21.9126 0.435029 22.3526 0.497588L28.2605 1.7242C28.7584 1.84932 29.1807 2.11519 29.5275 2.52183C29.8698 2.93293 30.0409 3.42 30.0409 3.98303V18.5951C30.0409 22.1788 28.9007 25.3515 26.6202 28.113C24.3353 30.879 21.4747 32.6396 18.0384 33.3948C18.1629 35.0929 18.6941 36.6635 19.6321 38.1069C20.5701 39.5502 21.837 40.6807 23.4329 41.4985C25.0243 42.3162 26.7269 42.7251 28.5406 42.7251C31.4168 42.7251 33.8862 41.7666 35.9488 39.8496C38.0115 37.9326 39.0428 35.6246 39.0428 32.9256V22.2682C36.9801 21.1377 35.9799 19.3793 36.0422 16.9931C36.1044 15.3576 36.6979 13.959 37.8225 12.7972C38.9472 11.6354 40.3231 11.0545 41.9501 11.0545ZM40.9632 18.1728C41.2477 18.4543 41.6078 18.5951 42.0434 18.5951C42.4791 18.5951 42.8391 18.4543 43.1236 18.1728C43.4037 17.8868 43.5437 17.5249 43.5437 17.087C43.5437 16.649 43.4037 16.2871 43.1236 16.0011C42.8391 15.7196 42.4791 15.5788 42.0434 15.5788C41.6078 15.5788 41.2477 15.7196 40.9632 16.0011C40.6831 16.2871 40.5431 16.649 40.5431 17.087C40.5431 17.5249 40.6831 17.8868 40.9632 18.1728Z" fill="#D81324"/>
</svg>
