<svg width="61" height="49" viewBox="0 0 61 49" fill="none" xmlns="http://www.w3.org/2000/svg">
<path d="M39.0347 21.6348L59.0947 15.6023C59.348 15.5398 59.568 15.5867 59.7547 15.7431C59.9413 15.8995 60.0347 16.105 60.0347 16.3597V18.0555C60.0347 18.2432 59.9724 18.4309 59.848 18.6186L39.8813 38.7872C39.3169 39.4173 38.628 39.7323 37.8147 39.7323H12.0347C11.2213 39.7323 10.5191 39.4329 9.928 38.8341C9.33245 38.2398 9.03467 37.5338 9.03467 36.7161V32.2855L2.47467 31.1528C1.78578 31.0276 1.20578 30.6836 0.734668 30.1205C0.268001 29.553 0.034668 28.8917 0.034668 28.1365V19.1816C0.034668 18.6811 0.174668 18.1941 0.454668 17.7204C0.739112 17.2512 1.09911 16.8759 1.53467 16.5943C1.97022 16.3083 2.47022 16.1654 3.03467 16.1654C3.22133 16.1654 3.408 16.1966 3.59467 16.2592L16.5347 18.6186H21.788V14.0942H16.5347C16.0991 14.0942 15.7391 13.9534 15.4547 13.6719C15.1747 13.3859 15.0347 13.024 15.0347 12.5861V11.0779C15.0347 10.64 15.1747 10.2781 15.4547 9.9921C15.7391 9.71058 16.0991 9.56982 16.5347 9.56982H31.5347C31.9702 9.56982 32.3302 9.71058 32.6147 9.9921C32.8947 10.2781 33.0347 10.64 33.0347 11.0779V12.5861C33.0347 13.024 32.8947 13.3859 32.6147 13.6719C32.3302 13.9534 31.9702 14.0942 31.5347 14.0942H26.288V18.6186H31.628C32.5658 18.6186 33.4724 18.8375 34.348 19.2754L39.0347 21.6348ZM4.53467 26.9166L9.03467 27.7612V21.8225L4.53467 21.0718V26.9166ZM51.5013 35.6771C51.5013 35.0515 51.8458 34.0618 52.5347 32.7078C53.2236 31.3583 53.8791 30.1809 54.5013 29.1754L55.5347 27.6673C58.2236 31.5639 59.568 34.2338 59.568 35.6771C59.568 36.8077 59.1769 37.7662 58.3947 38.5526C57.6124 39.3391 56.6591 39.7323 55.5347 39.7323C54.4102 39.7323 53.4569 39.3391 52.6747 38.5526C51.8924 37.7662 51.5013 36.8077 51.5013 35.6771Z" fill="#D81324"/>
</svg>
