<svg width="49" height="49" viewBox="0 0 49 49" fill="none" xmlns="http://www.w3.org/2000/svg">
<path d="M42.046 12.6336H45.0466C45.8601 12.6336 46.5625 12.933 47.1537 13.5317C47.7494 14.1261 48.0472 14.8321 48.0472 15.6498V39.7798C48.0472 40.5976 47.7494 41.3036 47.1537 41.8979C46.5625 42.4967 45.8601 42.7961 45.0466 42.7961H3.03786C2.22435 42.7961 1.52199 42.4967 0.930751 41.8979C0.335071 41.3036 0.0372314 40.5976 0.0372314 39.7798V15.6498C0.0372314 14.8321 0.335071 14.1261 0.930751 13.5317C1.52199 12.933 2.22435 12.6336 3.03786 12.6336H6.03848V8.1092C6.03848 7.67128 6.17851 7.30933 6.45857 7.02335C6.74307 6.74183 7.10315 6.60107 7.53879 6.60107H16.5407C16.9763 6.60107 17.3364 6.74183 17.6209 7.02335C17.901 7.30933 18.041 7.67128 18.041 8.1092V12.6336H30.0435V8.1092C30.0435 7.67128 30.1835 7.30933 30.4636 7.02335C30.7481 6.74183 31.1081 6.60107 31.5438 6.60107H40.5457C40.9813 6.60107 41.3414 6.74183 41.6259 7.02335C41.9059 7.30933 42.046 7.67128 42.046 8.1092V12.6336ZM18.041 25.456V23.9479C18.041 23.4429 17.792 23.1904 17.2942 23.1904H6.79197C6.28964 23.1904 6.03848 23.4429 6.03848 23.9479V25.456C6.03848 25.9565 6.28964 26.2067 6.79197 26.2067H17.2942C17.792 26.2067 18.041 25.9565 18.041 25.456ZM42.046 25.456V23.9479C42.046 23.4429 41.797 23.1904 41.2992 23.1904H37.545V19.4235C37.545 18.9185 37.2961 18.6661 36.7982 18.6661H35.2979C34.7956 18.6661 34.5444 18.9185 34.5444 19.4235V23.1904H30.797C30.2946 23.1904 30.0435 23.4429 30.0435 23.9479V25.456C30.0435 25.9565 30.2946 26.2067 30.797 26.2067H34.5444V29.9804C34.5444 30.4808 34.7956 30.7311 35.2979 30.7311H36.7982C37.2961 30.7311 37.545 30.4808 37.545 29.9804V26.2067H41.2992C41.797 26.2067 42.046 25.9565 42.046 25.456Z" fill="#D81324"/>
</svg>
