<svg width="61" height="50" viewBox="0 0 61 50" fill="none" xmlns="http://www.w3.org/2000/svg">
<path d="M13.4385 21.6908L12.3118 26.0275C12.0007 27.033 11.9073 28.1322 12.0318 29.3253L8.75178 32.06C8.44067 32.3103 8.11178 32.3259 7.76512 32.107C7.42289 31.888 7.31401 31.5886 7.43845 31.2088L8.84512 23.9497C8.96956 23.3241 8.71845 22.98 8.09178 22.9175L0.785117 22.2539C0.407339 22.1913 0.171784 21.9724 0.0784503 21.597C-0.0148831 21.2172 0.0940058 20.9022 0.405117 20.6519L6.49845 16.5967C7.06289 16.2214 7.12512 15.8147 6.68512 15.3768L1.99845 9.62584C1.74956 9.31305 1.73401 8.98238 1.95178 8.63383C2.17401 8.28976 2.47178 8.18028 2.84512 8.3054L10.0651 9.71968C10.6873 9.8448 11.0296 9.59233 11.0918 8.96227L11.7518 1.61602C11.814 1.2362 12.0318 0.999368 12.4051 0.90553C12.7829 0.811691 13.0962 0.921169 13.3451 1.23397L17.3785 7.3603C17.7518 7.92781 18.1562 7.99037 18.5918 7.54798L24.3118 2.83593C24.6273 2.58569 24.9562 2.57005 25.2985 2.78901C25.6407 3.01244 25.7496 3.31183 25.6251 3.68718L24.5918 8.96227C24.2807 9.40465 24.0318 9.71968 23.8451 9.90736L20.8451 13.9625L19.8118 15.283C18.314 15.7209 16.9873 16.5051 15.8318 17.6357C14.6718 18.7662 13.874 20.1179 13.4385 21.6908ZM59.8451 34.1312L58.6251 38.5617C58.3762 39.6297 57.8451 40.5413 57.0318 41.2965C56.7829 41.5467 56.5007 41.7657 56.1851 41.9533L54.8784 46.8598C54.7496 47.2977 54.5607 47.673 54.3118 47.9858C53.4985 48.9913 52.4673 49.3376 51.2185 49.0248L48.3118 48.2674C47.4985 48.0171 46.8896 47.5301 46.4851 46.8062C46.0807 46.0867 45.9718 45.3181 46.1585 44.5004L46.9985 41.6718L23.7518 35.3578L22.9985 38.2802C22.8118 39.098 22.3585 39.7101 21.6385 40.1168C20.9229 40.5234 20.1585 40.6329 19.3451 40.4452L16.4385 39.6945C15.1273 39.3147 14.4096 38.4657 14.2851 37.1474C14.2185 36.7721 14.2185 36.3632 14.2851 35.9208L15.5918 31.0211C15.4673 30.7083 15.3429 30.3933 15.2185 30.076C14.9073 28.9455 14.9073 27.8462 15.2185 26.7783L16.3451 22.4416C16.8429 20.5558 17.9985 19.2376 19.8118 18.4869C20.3762 18.2322 20.9696 18.0736 21.5918 18.011L23.2851 15.7522L26.2851 11.697C26.5962 11.2591 26.9384 10.8502 27.3118 10.4704C28.0629 9.71968 28.9073 9.12313 29.8451 8.68075C30.2807 8.43051 30.7496 8.21156 31.2518 8.02388C32.1896 7.70661 33.1896 7.5167 34.2518 7.45414C35.314 7.39158 36.3451 7.51894 37.3451 7.8362L48.8784 10.9463C49.9407 11.1965 50.9096 11.6054 51.7851 12.1729C53.0962 13.0487 54.1896 14.148 55.0651 15.4707C55.8785 16.7889 56.3785 18.2657 56.5651 19.9012L57.2185 24.8948L57.4985 27.7233C58.4985 28.4785 59.2185 29.4214 59.6585 30.5519C60.094 31.745 60.1562 32.9381 59.8451 34.1312ZM24.0318 22.9175C23.5962 22.7923 23.174 22.7611 22.7651 22.8236C22.3607 22.8862 22.0007 23.0113 21.6851 23.199C21.374 23.3866 21.094 23.6369 20.8451 23.9497C20.5962 24.2669 20.4096 24.6445 20.2851 25.0824C20.1562 25.65 20.1562 26.1839 20.2851 26.6844C20.4096 27.1894 20.6585 27.6139 21.0318 27.9579C21.4051 28.302 21.874 28.5701 22.4385 28.7623C22.5629 28.8248 22.8118 28.903 23.1851 28.9969C23.5629 29.0907 23.8607 29.1689 24.0785 29.2315C24.2962 29.294 24.5629 29.3566 24.8785 29.4191C25.1896 29.4817 25.454 29.4973 25.6718 29.4661C25.8896 29.4348 26.1096 29.4035 26.3318 29.3722C26.5496 29.3409 26.7362 29.2471 26.8918 29.0907C27.0473 28.9343 27.1562 28.7288 27.2185 28.4741C27.4051 27.5938 27.1251 26.5101 26.3785 25.2232C25.6273 23.9363 24.8451 23.1677 24.0318 22.9175ZM44.1851 23.6682L51.2185 25.6455L50.6585 20.5581C50.5962 20.1202 50.4718 19.68 50.2851 19.2376C49.7207 17.9194 48.7518 17.1039 47.3784 16.7911L35.8451 13.681C35.4718 13.5514 35.0651 13.4866 34.6251 13.4866C34.0651 13.4866 33.4251 13.6609 32.7051 14.0095C31.9851 14.3535 31.4385 14.778 31.0651 15.283L28.0651 19.3315L44.1851 23.6682ZM54.8784 32.107C54.5007 31.4456 53.874 30.9898 52.9985 30.7396C52.1229 30.4894 51.0451 30.7396 49.7651 31.4903C48.4851 32.2455 47.7207 33.0632 47.4718 33.9435C47.534 34.1938 47.534 34.4127 47.4718 34.6004C47.4096 34.7925 47.5029 34.9825 47.7518 35.1701C48.0007 35.3578 48.1718 35.4986 48.2651 35.5924C48.3585 35.6862 48.594 35.7957 48.9718 35.9208C49.3451 36.046 49.6096 36.1242 49.7651 36.1554C49.9207 36.1867 50.2029 36.2515 50.6118 36.3498C51.0162 36.4437 51.2807 36.5219 51.4051 36.5844C51.8451 36.7095 52.2673 36.7408 52.6718 36.6783C53.0807 36.6157 53.4407 36.4906 53.7518 36.3029C54.0629 36.1108 54.3429 35.8583 54.5918 35.5455C54.8451 35.2327 55.0029 34.8551 55.0651 34.4127C55.314 33.5324 55.2518 32.7638 54.8784 32.107Z" fill="#D81324"/>
</svg>
