<svg width="43" height="50" viewBox="0 0 43 50" fill="none" xmlns="http://www.w3.org/2000/svg">
<path d="M14.288 25.0118H37.5347C38.7836 25.0118 39.8458 25.452 40.7213 26.3323C41.5969 27.2126 42.0347 28.2806 42.0347 29.5362V44.6175C42.0347 45.8731 41.5969 46.9411 40.7213 47.8214C39.8458 48.7017 38.7836 49.1418 37.5347 49.1418H4.53467C3.28578 49.1418 2.22356 48.7017 1.348 47.8214C0.472446 46.9411 0.034668 45.8731 0.034668 44.6175V29.5362C0.034668 28.2806 0.472446 27.2126 1.348 26.3323C2.22356 25.452 3.28578 25.0118 4.53467 25.0118H6.788V15.4001C6.788 11.3784 8.17689 7.95327 10.9547 5.12469C13.7369 2.29612 17.0813 0.881836 20.988 0.881836C24.8947 0.881836 28.2547 2.28048 31.068 5.07778C33.8813 7.87507 35.288 11.2533 35.288 15.2124V16.7205C35.288 17.3461 35.068 17.8801 34.628 18.3225C34.1924 18.7604 33.6613 18.9793 33.0347 18.9793H30.0347C29.408 18.9793 28.8769 18.7604 28.4413 18.3225C28.0058 17.8801 27.788 17.3461 27.788 16.7205V15.2124C27.788 13.3267 27.1147 11.7225 25.768 10.3998C24.4258 9.08157 22.8169 8.42246 20.9413 8.42246C19.128 8.42246 17.5658 9.09721 16.2547 10.4467C14.9436 11.8007 14.288 13.4205 14.288 15.3062V25.0118Z" fill="#D81324"/>
</svg>
