<svg width="61" height="49" viewBox="0 0 61 49" fill="none" xmlns="http://www.w3.org/2000/svg">
<path d="M48.0372 18.5429L47.2905 19.8633C46.975 20.4264 46.5061 20.6141 45.8839 20.4264C44.755 19.9885 43.755 19.3919 42.8839 18.6367C42.3816 18.1988 42.2861 17.6961 42.5972 17.1286L43.3505 15.8082C42.7239 15.053 42.2239 14.204 41.8505 13.2611H40.3505C39.6616 13.2611 39.2861 12.917 39.2239 12.2289C38.975 11.0983 38.975 9.93429 39.2239 8.73673C39.2861 8.11114 39.6616 7.79834 40.3505 7.79834H41.8505C42.2239 6.85548 42.7239 6.00647 43.3505 5.25129L42.5972 3.837C42.2861 3.27397 42.3816 2.80254 42.8839 2.42271C43.755 1.672 44.755 1.07546 45.8839 0.633072C46.5061 0.382835 46.975 0.539233 47.2905 1.10227L48.0372 2.51655C49.0372 2.32887 50.0372 2.32887 51.0372 2.51655L51.7905 1.10227C52.1016 0.539233 52.5683 0.382835 53.1905 0.633072C54.3194 1.00843 55.3194 1.60497 56.1905 2.42271C56.6928 2.80254 56.7883 3.27397 56.4772 3.837L55.7239 5.25129C56.3505 6.00647 56.8505 6.85548 57.2239 7.79834H58.7239C59.4128 7.79834 59.7883 8.11114 59.8505 8.73673C60.0994 9.93429 60.0994 11.0983 59.8505 12.2289C59.7883 12.917 59.4128 13.2611 58.7239 13.2611H57.2239C56.8505 14.204 56.3505 15.053 55.7239 15.8082L56.4772 17.1286C56.7883 17.7587 56.6928 18.2614 56.1905 18.6367C55.3194 19.3919 54.3194 19.9885 53.1905 20.4264C52.5683 20.6141 52.1016 20.4264 51.7905 19.8633L51.0372 18.5429C50.0372 18.7306 49.0372 18.7306 48.0372 18.5429ZM47.0972 12.9796C48.2261 13.8599 49.3839 14.1124 50.5705 13.737C51.7572 13.3572 52.4905 12.6176 52.7705 11.5184C53.0505 10.4191 52.7861 9.24167 51.9772 7.98602C50.8528 7.10572 49.695 6.85325 48.5039 7.22861C47.3172 7.60843 46.5839 8.34797 46.3039 9.44722C46.0239 10.5465 46.2883 11.7239 47.0972 12.9796ZM36.2239 27.4978L39.4105 29.0998C40.4728 29.7298 40.7861 30.6414 40.3505 31.8345C39.7861 33.4655 38.4728 35.5389 36.4105 38.0547C35.5972 38.9975 34.6594 39.1539 33.5972 38.5239L30.7905 36.9219C29.2883 38.2401 27.5994 39.2455 25.7239 39.9382V43.1421C25.7239 43.647 25.5372 44.1185 25.1639 44.5564C24.7861 44.9988 24.3483 45.2512 23.8505 45.3138C21.4772 45.7517 19.1016 45.7517 16.7239 45.3138C16.1639 45.2512 15.7105 44.9988 15.3639 44.5564C15.0216 44.1185 14.8505 43.647 14.8505 43.1421V39.9382C12.9128 39.2455 11.1928 38.2401 9.69053 36.9219L6.9772 38.5239C5.91498 39.1539 4.9772 38.9975 4.16387 38.0547C2.16387 35.6015 0.850532 33.5281 0.223865 31.8345C-0.21169 30.6414 0.101643 29.7298 1.16387 29.0998L4.2572 27.4978C3.87942 25.487 3.87942 23.5074 4.2572 21.5591L1.16387 19.9572C0.0394208 19.3271 -0.273913 18.4155 0.223865 17.2224C0.850532 15.5244 2.16387 13.451 4.16387 11.0023C4.91498 10.0594 5.85275 9.90301 6.9772 10.5331L9.69053 12.0412C11.255 10.7185 12.975 9.74438 14.8505 9.11879V5.91486C14.8505 5.34736 15.0216 4.86029 15.3639 4.45366C15.7105 4.04255 16.1639 3.80572 16.7239 3.74316C19.1016 3.30525 21.4772 3.30525 23.8505 3.74316C24.0994 3.74316 24.3328 3.82136 24.5505 3.97776C24.7728 4.13416 24.9772 4.30843 25.1639 4.50057C25.3505 4.68825 25.4905 4.90721 25.5839 5.15745C25.6772 5.40768 25.7239 5.66016 25.7239 5.91486V9.11879C27.5994 9.80694 29.2883 10.7811 30.7905 12.0412L33.5972 10.5331C34.6594 9.84045 35.5972 9.99685 36.4105 11.0023C38.4105 13.3885 39.7239 15.4619 40.3505 17.2224C40.7861 18.4155 40.4728 19.3271 39.4105 19.9572L36.2239 21.5591C36.6016 23.5074 36.6016 25.487 36.2239 27.4978ZM25.2572 29.4751C26.3194 28.0944 26.9128 26.6488 27.0372 25.1384C27.1616 23.6325 26.8794 22.33 26.1905 21.2307C25.5061 20.1315 24.6172 19.2355 23.5239 18.5429C22.4305 17.8503 21.1328 17.5822 19.6305 17.7386C18.1328 17.8994 16.695 18.5138 15.3172 19.5818C14.255 20.9626 13.6616 22.4082 13.5372 23.9185C13.4128 25.4244 13.695 26.727 14.3839 27.8262C15.0683 28.9255 15.9572 29.8214 17.0505 30.5141C18.1439 31.2067 19.4416 31.4726 20.9439 31.3117C22.4416 31.1553 23.8794 30.5431 25.2572 29.4751ZM48.0372 46.7281L47.2905 48.0485C46.975 48.6116 46.5061 48.7992 45.8839 48.6116C44.755 48.1692 43.755 47.5726 42.8839 46.8219C42.3816 46.3795 42.2861 45.8768 42.5972 45.3138L43.3505 43.9933C42.7239 43.2382 42.2239 42.3891 41.8505 41.4463H40.3505C39.6616 41.4463 39.2861 41.1 39.2239 40.4074C38.975 39.2768 38.975 38.115 39.2239 36.9219C39.2861 36.2963 39.6616 35.9835 40.3505 35.9835H41.8505C42.2239 35.0407 42.7239 34.1604 43.3505 33.3426L42.5972 32.0222C42.2861 31.4547 42.3816 30.952 42.8839 30.5141C43.755 29.7589 44.755 29.1936 45.8839 28.8183C46.5061 28.568 46.975 28.7244 47.2905 29.2874L48.0372 30.7017C49.0372 30.5141 50.0372 30.5141 51.0372 30.7017L51.7905 29.2874C52.1016 28.7244 52.5683 28.568 53.1905 28.8183C54.3194 29.1936 55.3194 29.7589 56.1905 30.5141C56.6928 30.952 56.7883 31.4547 56.4772 32.0222L55.7239 33.3426C56.3505 34.1604 56.8505 35.0407 57.2239 35.9835H58.7239C59.4128 35.9835 59.7883 36.2963 59.8505 36.9219C60.0994 38.115 60.0994 39.2768 59.8505 40.4074C59.7883 41.1 59.4128 41.4463 58.7239 41.4463H57.2239C56.8505 42.3891 56.3505 43.2382 55.7239 43.9933L56.4772 45.3138C56.7883 45.8768 56.6928 46.3795 56.1905 46.8219C55.3194 47.5726 54.3194 48.1692 53.1905 48.6116C52.5683 48.7992 52.1016 48.6116 51.7905 48.0485L51.0372 46.7281C50.0372 46.9158 49.0372 46.9158 48.0372 46.7281ZM47.0972 41.1648C48.2261 42.0451 49.3839 42.2953 50.5705 41.9155C51.7572 41.5401 52.4905 40.8028 52.7705 39.7036C53.0505 38.6043 52.7861 37.4269 51.9772 36.1712C50.8528 35.2909 49.695 35.0384 48.5039 35.4138C47.3172 35.7936 46.5839 36.5331 46.3039 37.6324C46.0239 38.7317 46.2883 39.9091 47.0972 41.1648Z" fill="#D81324"/>
</svg>
