<svg width="49" height="43" viewBox="0 0 49 43" fill="none" xmlns="http://www.w3.org/2000/svg">
<path d="M31.5438 21.4337L44.5798 13.1357C45.3267 12.6352 46.0913 12.6039 46.8736 13.0418C47.656 13.4842 48.0472 14.1456 48.0472 15.0258V40.664C48.0472 41.2896 47.8294 41.8236 47.3938 42.2659C46.9537 42.7038 46.4224 42.9228 45.8001 42.9228H2.29103C1.66424 42.9228 1.13079 42.7038 0.690701 42.2659C0.255055 41.8236 0.0372314 41.2896 0.0372314 40.664V2.96085C0.0372314 2.33079 0.255055 1.79457 0.690701 1.35218C1.13079 0.91427 1.66424 0.695312 2.29103 0.695312H12.7932C13.4156 0.695312 13.9468 0.91427 14.3869 1.35218C14.8225 1.79457 15.0404 2.33079 15.0404 2.96085V21.4337L28.0764 13.1357C28.8232 12.6352 29.5878 12.6039 30.3702 13.0418C31.1526 13.4842 31.5438 14.1456 31.5438 15.0258V21.4337Z" fill="#D81324"/>
</svg>
